<svg id="Google" xmlns="http://www.w3.org/2000/svg" width="80" height="62" viewBox="0 0 80 62">
  <path id="Line" d="M0,.5H80" transform="translate(0 60.5)" fill="none" stroke="#050a23" stroke-miterlimit="10" stroke-width="2"/>
  <g id="Block_03" transform="translate(51 42)" fill="none" stroke="#050a23" stroke-miterlimit="10" stroke-width="2">
    <rect width="26" height="20" stroke="none"/>
    <rect x="1" y="1" width="24" height="18" fill="none"/>
  </g>
  <g id="Block_02" transform="translate(27 22)" fill="none" stroke="#050a23" stroke-miterlimit="10" stroke-width="2">
    <rect width="26" height="40" stroke="none"/>
    <rect x="1" y="1" width="24" height="38" fill="none"/>
  </g>
  <g id="Block_01" transform="translate(3 32)" fill="none" stroke="#050a23" stroke-miterlimit="10" stroke-width="2">
    <rect width="26" height="30" stroke="none"/>
    <rect x="1" y="1" width="24" height="28" fill="none"/>
  </g>
  <g id="Star" transform="translate(30)" fill="none" stroke-miterlimit="10">
    <path d="M10,15,4.122,18.09l1.123-6.545L.489,6.91l6.572-.955L10,0l2.939,5.955,6.572.955-4.755,4.635,1.123,6.545Z" stroke="none"/>
    <path d="M 13.88565540313721 15.3481502532959 L 13.27686977386475 11.79865455627441 L 13.1435604095459 11.02140522003174 L 13.70825958251953 10.47095489501953 L 16.28712272644043 7.957191467285156 L 12.72323036193848 7.439324855804443 L 11.94283008575439 7.325924873352051 L 11.59383010864258 6.618764877319336 L 10 3.38931941986084 L 8.406169891357422 6.618764877319336 L 8.057169914245605 7.325924873352051 L 7.276770114898682 7.439324855804443 L 3.712882518768311 7.957191467285156 L 6.291739940643311 10.47095489501953 L 6.85644006729126 11.02140522003174 L 6.723130226135254 11.79865455627441 L 6.114344120025635 15.3481502532959 L 9.301989555358887 13.6723051071167 L 10 13.305344581604 L 10.69801044464111 13.6723051071167 L 13.88565540313721 15.3481502532959 M 15.87784957885742 18.09017562866211 L 10 15.00000476837158 L 4.12214994430542 18.09017562866211 L 5.244719982147217 11.54508495330811 L 0.489439994096756 6.909834861755371 L 7.061069965362549 5.954915046691895 L 10 4.953308234689757e-06 L 12.93892955780029 5.954915046691895 L 19.51057052612305 6.909834861755371 L 14.75527954101563 11.54508495330811 L 15.87784957885742 18.09017562866211 Z" stroke="none" fill="#050a23"/>
  </g>
</svg>
