<svg xmlns="http://www.w3.org/2000/svg" width="13" height="13" viewBox="0 0 13 13">
  <path id="Clock" d="M5.922,12.422A.578.578,0,1,1,6.5,13,.578.578,0,0,1,5.922,12.422Zm3.038-.5a.578.578,0,1,1,.5.289A.578.578,0,0,1,8.96,11.918Zm-5.711.212a.579.579,0,1,1,.288.077A.578.578,0,0,1,3.25,12.129ZM.871,9.75a.576.576,0,1,1,.5.289A.578.578,0,0,1,.871,9.75Zm10.469.212a.576.576,0,0,1-.217-.777h0A5.346,5.346,0,0,0,6.5,1.156h0A.578.578,0,1,1,6.5,0a6.5,6.5,0,0,1,5.631,9.746l0,0,0,0c-.008.014-.015.029-.023.042l-.005,0a.577.577,0,0,1-.472.246A.569.569,0,0,1,11.34,9.961ZM9.589,8.951l0,0L6.211,7a.574.574,0,0,1-.286-.5h0V2.6a.578.578,0,1,1,1.156,0V6.166L10.166,7.95a.578.578,0,0,1-.578,1ZM0,6.5a.578.578,0,1,1,.578.578A.578.578,0,0,1,0,6.5ZM1.083,4.039a.577.577,0,1,1,.288.078A.577.577,0,0,1,1.083,4.039ZM3.038,1.661a.578.578,0,1,1,.5.289A.578.578,0,0,1,3.038,1.661Z" fill="#050a23"/>
</svg>
