<svg xmlns="http://www.w3.org/2000/svg" width="12.5" height="12.5" viewBox="0 0 12.5 12.5">
  <path id="Clock" d="M5.694,11.945a.556.556,0,1,1,.555.555A.556.556,0,0,1,5.694,11.945Zm2.921-.485a.556.556,0,1,1,.482.277A.557.557,0,0,1,8.616,11.46Zm-5.491.2a.555.555,0,1,1,.278.075A.556.556,0,0,1,3.125,11.662ZM.837,9.375a.557.557,0,1,1,.482.278A.557.557,0,0,1,.837,9.375Zm10.067.2a.555.555,0,0,1-.208-.748h0A5.14,5.14,0,0,0,6.251,1.111h0A.556.556,0,0,1,6.25,0a6.248,6.248,0,0,1,5.414,9.371,0,0,0,0,1,0,0v0c-.008.014-.014.028-.023.041l-.005,0a.556.556,0,0,1-.455.238A.548.548,0,0,1,10.9,9.579ZM9.22,8.606h0L5.972,6.731A.553.553,0,0,1,5.7,6.25h0V2.5a.556.556,0,1,1,1.111,0V5.929l2.97,1.714a.556.556,0,1,1-.556.962ZM0,6.25a.556.556,0,1,1,.556.556A.556.556,0,0,1,0,6.25ZM1.04,3.884a.557.557,0,1,1,.277.074A.557.557,0,0,1,1.04,3.884ZM2.921,1.6a.557.557,0,1,1,.482.278A.557.557,0,0,1,2.921,1.6Z" fill="#fff"/>
</svg>
