<?xml version="1.0" encoding="utf-8"?>
<!-- Generator: Adobe Illustrator 19.0.0, SVG Export Plug-In . SVG Version: 6.00 Build 0)  -->
<svg version="1.1" id="Layer_1" width="524px" height="584px" xmlns="http://www.w3.org/2000/svg" xmlns:xlink="http://www.w3.org/1999/xlink" x="0px" y="0px"
	 viewBox="-6.8 118 520.8 583" style="enable-background:new -6.8 118 520.8 583;" xml:space="preserve">
<style type="text/css">
	.st0{fill:#E03C31;}
</style>
<title>Pattern</title>
<g id="Desktop">
	<g id="Home" transform="translate(25.000000, 25.000000)">
		<g id="Pattern" transform="translate(-25.000000, -25.000000)">
			<path id="Shape" class="st0" d="M55.1,650.6c-13.8,0-25,11.2-25,25c0,13.8,11.2,25,25,25s25-11.2,25-25
				C80.1,661.8,68.8,650.6,55.1,650.6z M55.1,691.8c-9,0-16.3-7.3-16.3-16.3c0-9,7.3-16.3,16.3-16.3s16.3,7.3,16.3,16.3
				C71.2,684.5,64,691.8,55.1,691.8z"/>
			<path id="Shape_1_" class="st0" d="M117,526.7c-13.8,0-25,11.2-25,25c0,13.8,11.2,25,25,25s25-11.2,25-25
				C142,537.9,130.8,526.7,117,526.7z M117,567.9c-9,0-16.3-7.3-16.3-16.3c0-9,7.3-16.3,16.3-16.3c9,0,16.3,7.3,16.3,16.3
				C133.3,560.6,126,567.9,117,567.9z"/>
			<path id="Path" class="st0" d="M55.1,526.7c-13.8,0-25,11.2-25,25h8.7c0-9,7.3-16.3,16.3-16.3s16.3,7.3,16.3,16.3h8.7
				C80.1,537.9,68.9,526.7,55.1,526.7z"/>
			<path id="Path_1_" class="st0" d="M55.1,481.1c-9,0-16.3-7.3-16.3-16.3H30c0,13.8,11.2,25,25,25s25-11.2,25-25h-8.7
				C71.4,473.8,64.1,481.1,55.1,481.1z"/>
			<path id="Shape_2_" class="st0" d="M-6.8,402.9c-13.8,0-25,11.2-25,25s11.2,25,25,25s25-11.2,25-25S6.9,402.9-6.8,402.9z
				 M-6.8,444.3c-9,0-16.3-7.3-16.3-16.3c0-9,7.3-16.3,16.3-16.3s16.3,7.3,16.3,16.3C9.5,437,2.1,444.3-6.8,444.3z"/>
			<path id="Shape_3_" class="st0" d="M117,341c-13.8,0-25,11.2-25,25s11.2,25,25,25c4.5,0,8.9-1.3,12.5-3.3c3.6,2.2,8,3.3,12.5,3.3
				v-8.7c-1.9,0-3.6-0.3-5.4-0.9c3.3-4.2,5.4-9.6,5.4-15.3c0-5.7-2-11.1-5.4-15.3c1.6-0.6,3.5-0.9,5.4-0.9v-8.7
				c-4.5,0-8.9,1.3-12.5,3.3C125.7,342.2,121.5,341,117,341z M125.7,365.9c0-3.9,1.5-7.6,3.8-10.3c2.3,2.8,3.8,6.4,3.8,10.3
				c0,3.9-1.5,7.6-3.8,10.3C127,373.5,125.7,369.9,125.7,365.9z M100.6,365.9c0-9,7.3-16.3,16.3-16.3c1.9,0,3.6,0.3,5.4,0.9
				c-3.3,4.2-5.4,9.6-5.4,15.3c0,5.7,2,11.1,5.4,15.3c-1.6,0.6-3.5,0.9-5.4,0.9C107.9,382.2,100.6,375,100.6,365.9z"/>
			<path id="Path_2_" class="st0" d="M178.8,278.8c-13.8,0-25,11.2-25,25h8.7c0-9,7.3-16.3,16.3-16.3c9,0,16.3,7.3,16.3,16.3h8.7
				C203.9,290,192.7,278.8,178.8,278.8z"/>
			<path id="Path_3_" class="st0" d="M116.9,294.9c-9,0-16.3-7.3-16.3-16.3h-8.7c0,13.8,11.2,25,25,25s25-11.2,25-25h-8.7
				C133.3,287.7,126,294.9,116.9,294.9z"/>
			<path id="Path_4_" class="st0" d="M488.4,216.9v8.7c9,0,16.3,7.3,16.3,16.3h8.7C513.4,228.1,502.2,216.9,488.4,216.9z"/>
			<path id="Shape_4_" class="st0" d="M401.5,221.3c0,13.8,11.2,25,25,25c13.8,0,25-11.2,25-25v-4.4h-49.9v4.4H401.5z M442.2,225.6
				c-1.9,6.8-8.2,11.9-15.7,11.9c-7.6,0-13.8-5.1-15.7-11.9H442.2z"/>
			<path id="Shape_5_" class="st0" d="M178.8,216.9c-13.8,0-25,11.2-25,25s11.2,25,25,25s25-11.2,25-25S192.7,216.9,178.8,216.9z
				 M178.8,258.1c-9,0-16.3-7.3-16.3-16.3c0-9,7.3-16.3,16.3-16.3c9,0,16.3,7.3,16.3,16.3C195.1,250.8,187.9,258.1,178.8,258.1z"/>
			<path id="Shape_6_" class="st0" d="M-6.8,216.9c-13.8,0-25,11.2-25,25s11.2,25,25,25c4.5,0,8.9-1.3,12.5-3.3
				c3.6,2.2,8,3.3,12.5,3.3v-8.7c-1.9,0-3.6-0.3-5.4-0.9c3.3-4.2,5.4-9.6,5.4-15.3c0-5.7-2-11.1-5.4-15.3c1.6-0.6,3.5-0.9,5.4-0.9
				v-8.7c-4.5,0-8.9,1.3-12.5,3.3C1.9,218.1-2.3,216.9-6.8,216.9z M1.9,241.8c0-3.9,1.5-7.6,3.8-10.3c2.3,2.8,3.8,6.4,3.8,10.3
				c0,3.9-1.5,7.6-3.8,10.3C3.2,249.4,1.9,245.7,1.9,241.8z M-23.1,241.8c0-9,7.3-16.3,16.3-16.3c1.9,0,3.6,0.3,5.4,0.9
				c-3.3,4.2-5.4,9.6-5.4,15.3c0,5.7,2,11.1,5.4,15.3c-1.6,0.6-3.5,0.9-5.4,0.9C-15.8,258.1-23.1,250.8-23.1,241.8z"/>
			<path id="Shape_7_" class="st0" d="M380.9,154.9c0,1.9-0.3,3.6-0.9,5.4c-4.2-3.3-9.6-5.4-15.3-5.4c-5.7,0-11.1,2-15.3,5.4
				c-0.6-1.6-0.9-3.5-0.9-5.4h-8.7c0,4.5,1.3,8.9,3.3,12.5c-2.2,3.6-3.3,8-3.3,12.5c0,13.8,11.2,25,25,25s25-11.2,25-25
				c0-4.5-1.3-8.9-3.3-12.5c2.2-3.6,3.3-8,3.3-12.5H380.9z M375,167.4c-2.8,2.3-6.4,3.8-10.3,3.8c-3.9,0-7.6-1.5-10.3-3.8
				c2.8-2.3,6.4-3.8,10.3-3.8C368.5,163.6,372.2,165.1,375,167.4z M364.6,196.2c-9,0-16.3-7.3-16.3-16.3c0-1.9,0.3-3.6,0.9-5.4
				c4.2,3.3,9.6,5.4,15.3,5.4c5.7,0,11.1-2,15.3-5.4c0.6,1.6,0.9,3.5,0.9,5.4C380.9,189,373.5,196.2,364.6,196.2z"/>
			<path id="Path_5_" class="st0" d="M302.7,196.2c-9,0-16.3-7.3-16.3-16.3c0-9,7.3-16.3,16.3-16.3v-8.7c-13.8,0-25,11.2-25,25
				s11.2,25,25,25s25-11.2,25-25H319C318.9,189,311.6,196.2,302.7,196.2z"/>
			<path id="Path_6_" class="st0" d="M178.8,154.9v8.7c9,0,16.3,7.3,16.3,16.3h8.7C203.9,166.1,192.7,154.9,178.8,154.9z"/>
			<path id="Path_7_" class="st0" d="M116.9,204.4c-9,0-16.3-7.3-16.3-16.3h-8.7c0,13.8,11.2,25,25,25s25-11.2,25-25h-8.7
				C133.3,197.1,126,204.4,116.9,204.4z"/>
			<path id="Shape_8_" class="st0" d="M116.9,154.9c-13.8,0-25,11.2-25,25v4.4h49.9v-4.4C142,166.1,130.8,154.9,116.9,154.9z
				 M101.2,175.6c1.9-6.8,8.2-11.9,15.7-11.9c7.6,0,13.8,5.1,15.7,11.9H101.2z"/>
			<path id="Shape_9_" class="st0" d="M55.1,154.9c-13.8,0-25,11.2-25,25s11.2,25,25,25s25-11.2,25-25S68.8,154.9,55.1,154.9z
				 M55.1,196.2c-9,0-16.3-7.3-16.3-16.3c0-9,7.3-16.3,16.3-16.3s16.3,7.3,16.3,16.3C71.4,189,64,196.2,55.1,196.2z"/>
			<path id="Path_8_" class="st0" d="M430.6,93v8.7c9,0,16.3,7.3,16.3,16.3s-7.3,16.3-16.3,16.3v8.7c13.8,0,25-11.2,25-25
				S444.4,93,430.6,93z"/>
			<path id="Path_9_" class="st0" d="M426.5,143.1v-8.7c-9,0-16.3-7.3-16.3-16.3s7.3-16.3,16.3-16.3V93c-13.8,0-25,11.2-25,25
				S412.7,143.1,426.5,143.1z"/>
			<path id="Path_10_" class="st0" d="M364.6,118c-13.8,0-25,11.2-25,25h8.7c0-9,7.3-16.3,16.3-16.3c9,0,16.3,7.3,16.3,16.3h8.7
				C389.7,129.3,378.3,118,364.6,118z"/>
			<path id="Path_11_" class="st0" d="M302.7,118c-13.8,0-25,11.2-25,25h8.7c0-9,7.3-16.3,16.3-16.3s16.3,7.3,16.3,16.3h8.7
				C327.6,129.3,316.4,118,302.7,118z"/>
			<path id="Shape_10_" class="st0" d="M240.7,93c-13.8,0-25,11.2-25,25s11.2,25,25,25s25-11.2,25-25S254.5,93,240.7,93z
				 M240.7,134.4c-9,0-16.3-7.3-16.3-16.3s7.3-16.3,16.3-16.3S257,109,257,118C257,126.9,249.7,134.4,240.7,134.4z"/>
			<path id="Path_12_" class="st0" d="M55.1,143.1v-8.7c-9,0-16.3-7.3-16.3-16.3s7.3-16.3,16.3-16.3V93c-13.8,0-25,11.2-25,25
				S41.2,143.1,55.1,143.1z"/>
			<path id="Shape_11_" class="st0" d="M-6.8,93c-13.8,0-25,11.2-25,25s11.2,25,25,25s25-11.2,25-25S6.9,93-6.8,93z M-6.8,134.4
				c-9,0-16.3-7.3-16.3-16.3s7.3-16.3,16.3-16.3S9.5,109,9.5,118C9.4,126.9,2.1,134.4-6.8,134.4z"/>
		</g>
	</g>
</g>
</svg>
