<?xml version="1.0" encoding="utf-8"?>
<!-- Generator: Adobe Illustrator 19.0.0, SVG Export Plug-In . SVG Version: 6.00 Build 0)  -->
<svg version="1.1" id="instagram" xmlns="http://www.w3.org/2000/svg" xmlns:xlink="http://www.w3.org/1999/xlink" x="0px" y="0px"
	 viewBox="-578.2 779.3 14.5 14.5" style="enable-background:new -578.2 779.3 14.5 14.5;" xml:space="preserve"  width="15" height="15">
<style type="text/css">
	.st0{fill:none;}
	.st1{fill:#FFFFFF;}
</style>
<rect id="Rectangle" x="-587" y="770.5" class="st0" width="32" height="32"/>
<path id="Shape" class="st1" d="M-566.5,793.8h-8.9c-1.6,0-2.8-1.3-2.8-2.8v-8.9c0-1.6,1.3-2.8,2.8-2.8h8.9c1.6,0,2.8,1.3,2.8,2.8
	v8.9C-563.7,792.5-565,793.8-566.5,793.8z M-576.9,785v6c0,0.8,0.6,1.4,1.4,1.4h8.9c0.8,0,1.4-0.6,1.4-1.4v-6h-2.2
	c0.8,2-0.1,4.4-2.2,5.2c-2.1,0.8-4.4-0.1-5.2-2.2c-0.4-1-0.4-2,0-3H-576.9z M-571,783.9c-0.8,0-1.6,0.4-2.1,1.1
	c-0.8,1.1-0.6,2.7,0.6,3.6c0.4,0.3,1,0.5,1.5,0.5c1.4,0,2.6-1.1,2.6-2.6C-568.4,785.1-569.6,783.9-571,783.9L-571,783.9z
	 M-565.4,780.9h-0.3h-2.1v2.5h2.5L-565.4,780.9z"/>
</svg>
