<?xml version="1.0" encoding="utf-8"?>
<!-- Generator: Adobe Illustrator 23.0.1, SVG Export Plug-In . SVG Version: 6.00 Build 0)  -->
<svg version="1.1" id="Layer_1" xmlns="http://www.w3.org/2000/svg" xmlns:xlink="http://www.w3.org/1999/xlink" x="0px" y="0px"
	 viewBox="0 0 14.5 14.5" style="enable-background:new 0 0 14.5 14.5;" xml:space="preserve" width="15" height="15">
<style type="text/css">
	.st0{fill:#050A23;}
</style>
<path class="st0" d="M12.9,1.7l-0.3,0l-2.1,0l0,2.5l2.5,0V1.7z M7.3,4.7c-0.8,0-1.6,0.4-2.1,1.1c-0.3,0.4-0.5,1-0.5,1.5
	c0,1.4,1.1,2.6,2.6,2.6c1.4,0,2.6-1.1,2.6-2.6c0-0.5-0.2-1.1-0.5-1.5C8.9,5.1,8.1,4.7,7.3,4.7z M1.4,5.8v6c0,0.8,0.6,1.4,1.4,1.4
	h8.9c0.8,0,1.4-0.6,1.4-1.4v-6H11c0.2,0.5,0.3,1,0.3,1.5c0,2.2-1.8,4-4,4s-4-1.8-4-4c0-0.5,0.1-1,0.3-1.5H1.4z M11.7,14.5H2.8
	c-1.5,0-2.8-1.3-2.8-2.8V2.8C0,1.3,1.3,0,2.8,0h8.9c1.6,0,2.8,1.3,2.8,2.8v8.9C14.5,13.3,13.3,14.5,11.7,14.5z"/>
</svg>
