<?xml version="1.0" encoding="utf-8"?>
<!-- Generator: Adobe Illustrator 23.0.1, SVG Export Plug-In . SVG Version: 6.00 Build 0)  -->
<svg version="1.1" id="Layer_1" xmlns="http://www.w3.org/2000/svg" xmlns:xlink="http://www.w3.org/1999/xlink" x="0px" y="0px"
	 viewBox="0 0 14.5 14.5" style="enable-background:new 0 0 14.5 14.5;" xml:space="preserve"  width="15" height="15">
<style type="text/css">
	.st0{fill:#050A23;}
</style>
<path class="st0" d="M1.7,3.4L1.7,3.4C0.7,3.4,0,2.7,0,1.7C0,0.7,0.7,0,1.7,0c1,0,1.7,0.7,1.7,1.7C3.4,2.7,2.7,3.4,1.7,3.4z
	 M3.2,14.5L3.2,14.5H0.4V4.7h2.8V14.5L3.2,14.5z M8.1,14.5L8.1,14.5l-3.2,0c0-0.1,0-9.1,0-9.9h3.2v1.6c0.2-0.7,1.2-1.6,2.8-1.6
	c1,0,1.9,0.4,2.6,1.1c0.7,0.8,1,1.9,1,3.4v5.5l-3.2,0V9.4c0-1.5-0.6-2.3-1.6-2.3c-0.9,0-1.4,0.8-1.5,1.2C8.1,8.6,8.1,8.8,8.1,9.1
	c0,0,0,0.1,0,0.1V14.5L8.1,14.5z"/>
</svg>
