<svg id="Logo" xmlns="http://www.w3.org/2000/svg" width="130" height="18.668" viewBox="0 0 130 18.668">
  <path id="O" d="M2.376,4.752A2.376,2.376,0,1,1,4.752,2.376,2.379,2.379,0,0,1,2.376,4.752Zm0-3.96A1.584,1.584,0,1,0,3.96,2.376,1.586,1.586,0,0,0,2.376.792Z" transform="translate(125.248)" fill="#fff"/>
  <path id="E" d="M0,12.614V.285A.253.253,0,0,1,.287,0H9.556a.253.253,0,0,1,.287.285V2.5a.253.253,0,0,1-.287.284H3.5a.253.253,0,0,0-.287.285V4.8a.253.253,0,0,0,.287.284h5.19a.253.253,0,0,1,.287.285V7.53a.253.253,0,0,1-.287.285H3.5a.253.253,0,0,0-.287.284V9.825a.253.253,0,0,0,.287.284H9.556a.253.253,0,0,1,.287.284v2.219a.253.253,0,0,1-.287.284H.287A.253.253,0,0,1,0,12.614" transform="translate(114.726 5.431)" fill="#fff"/>
  <path id="S" d="M10.318,3.332a.3.3,0,0,1-.326.27.418.418,0,0,1-.134-.019,15.552,15.552,0,0,0-4.2-.751q-1.824,0-1.824,1.155,0,.655.941.963.384.135,1.958.462A8.768,8.768,0,0,1,10.088,6.76a3.027,3.027,0,0,1,1.113,2.6,4.091,4.091,0,0,1-.384,1.81,3.608,3.608,0,0,1-1.084,1.319,5.022,5.022,0,0,1-1.708.809,8.53,8.53,0,0,1-2.275.279A16.189,16.189,0,0,1,.2,12.537a.3.3,0,0,1-.192-.385L.567,9.937a.294.294,0,0,1,.307-.27.641.641,0,0,1,.154.038,20.1,20.1,0,0,0,2.3.693,10.21,10.21,0,0,0,2.38.289q2.015,0,2.015-1.117a.9.9,0,0,0-.441-.79,1.048,1.048,0,0,0-.326-.192,2.881,2.881,0,0,0-.384-.135,3.242,3.242,0,0,0-.441-.135q-.307-.077-.48-.115-.077-.019-.221-.048l-.3-.058-.3-.058L4.6,7.992a15.331,15.331,0,0,1-1.622-.424,4.816,4.816,0,0,1-1.363-.674A3.152,3.152,0,0,1,.673,5.806,3.5,3.5,0,0,1,.318,4.14,3.763,3.763,0,0,1,.779,2.215,3.8,3.8,0,0,1,1.988.934,5.229,5.229,0,0,1,3.7.221,8.6,8.6,0,0,1,5.635,0a15.584,15.584,0,0,1,5.01.79.3.3,0,0,1,.192.385Z" transform="translate(101.828 5.091)" fill="#fff"/>
  <path id="L" d="M.473,12.9A.419.419,0,0,1,0,12.424V.474A.419.419,0,0,1,.473,0H2.707a.419.419,0,0,1,.473.474V9.6a.419.419,0,0,0,.473.474H9.031a.419.419,0,0,1,.473.474v1.878a.419.419,0,0,1-.473.474Z" transform="translate(91.645 5.431)" fill="#fff"/>
  <path id="U" d="M.289,0h2.7A.253.253,0,0,1,3.28.284V7.056a3.244,3.244,0,0,0,.752,2.289,2.7,2.7,0,0,0,2.083.813,2.761,2.761,0,0,0,2.1-.813A3.2,3.2,0,0,0,8.99,7.056V.284A.253.253,0,0,1,9.28,0h2.7a.253.253,0,0,1,.289.284V7.056A7.326,7.326,0,0,1,11.855,9.6,5.111,5.111,0,0,1,10.64,11.51,5.46,5.46,0,0,1,8.7,12.721a7.343,7.343,0,0,1-2.585.426,7.342,7.342,0,0,1-2.585-.426A5.082,5.082,0,0,1,.415,9.6,7.315,7.315,0,0,1,0,7.056V.284A.253.253,0,0,1,.289,0" transform="translate(77.878 5.182)" fill="#fff"/>
  <path id="P" d="M2.885,13.237H.283A.253.253,0,0,1,0,12.949V.443C0,.239.1.135.283.135,1.211.084,2.077.049,2.857.029S4.339,0,4.94,0A8.162,8.162,0,0,1,7.09.279a5.04,5.04,0,0,1,1.782.876,4.258,4.258,0,0,1,1.207,1.5,4.926,4.926,0,0,1,.443,2.174,4.853,4.853,0,0,1-.452,2.164,4.436,4.436,0,0,1-1.217,1.52,5.079,5.079,0,0,1-1.773.895A7.772,7.772,0,0,1,4.94,9.7H3.451a.253.253,0,0,0-.283.288v2.964A.253.253,0,0,1,2.885,13.237ZM5.129,2.829c-.213,0-.454,0-.716.009-.222.006-.564.015-.962.029a.253.253,0,0,0-.283.289V6.58a.253.253,0,0,0,.283.289H5.129a2.356,2.356,0,0,0,1.622-.538,1.893,1.893,0,0,0,.6-1.482,1.88,1.88,0,0,0-.6-1.5A2.411,2.411,0,0,0,5.129,2.829Z" transform="translate(66.527 5.091)" fill="#fff"/>
  <path id="D" d="M5.149,13.237c-.747,0-1.527-.009-2.317-.028C2,13.189,1.144,13.153.286,13.1.1,13.1,0,13,0,12.8V.437c0-.2.1-.3.286-.3.895-.051,1.722-.086,2.46-.1C3.5.01,4.2,0,4.825,0A8.736,8.736,0,0,1,7.637.437,6.474,6.474,0,0,1,9.868,1.712a5.838,5.838,0,0,1,1.477,2.064,7,7,0,0,1,.535,2.805,7.389,7.389,0,0,1-.486,2.73,6.064,6.064,0,0,1-1.373,2.1,6.108,6.108,0,0,1-2.126,1.351A7.655,7.655,0,0,1,5.149,13.237ZM4.138,2.872c-.241,0-.459.006-.649.019s-.286.1-.286.3v6.847c0,.2.1.3.286.3.215.013.468.019.753.019h.982a3.122,3.122,0,0,0,1.421-.313,3.251,3.251,0,0,0,1.049-.837,3.642,3.642,0,0,0,.648-1.208,4.653,4.653,0,0,0,.22-1.426A4.193,4.193,0,0,0,8.3,5.1a3.486,3.486,0,0,0-.725-1.18,3.25,3.25,0,0,0-1.135-.77,3.863,3.863,0,0,0-1.487-.276Z" transform="translate(53.29 5.091)" fill="#fff"/>
  <path id="N" d="M12.219.285V12.614a.253.253,0,0,1-.287.284H9.289A.253.253,0,0,1,9,12.614V5.975c0-.2-.045-.3-.134-.3q-.1,0-.23.171l-5.5,6.828a.6.6,0,0,1-.479.228H.287A.253.253,0,0,1,0,12.614V.285A.253.253,0,0,1,.287,0H2.93a.253.253,0,0,1,.287.285v6.7q0,.3.134.3.076,0,.23-.171L9.059.228A.6.6,0,0,1,9.538,0h2.394a.253.253,0,0,1,.287.285" transform="translate(39.373 5.431)" fill="#fff"/>
  <path id="A" d="M5,13.577a7.712,7.712,0,0,1-1.906-.234,4.639,4.639,0,0,1-1.591-.73A3.617,3.617,0,0,1,.405,11.324a4.14,4.14,0,0,1-.4-1.9,5.934,5.934,0,0,1,.066-.895,3.128,3.128,0,0,1,.217-.778A5.051,5.051,0,0,1,1.393,6.2,5.721,5.721,0,0,1,2.975,5.191a.232.232,0,0,0,.113-.346,4.219,4.219,0,0,1-.358-.817,3.149,3.149,0,0,1-.112-.894,2.505,2.505,0,0,1,.414-1.461A3.293,3.293,0,0,1,4.087.7,4.709,4.709,0,0,1,5.5.164,7.139,7.139,0,0,1,6.968,0,8.356,8.356,0,0,1,8.474.135,5.856,5.856,0,0,1,9.906.6a2.418,2.418,0,0,1,.461.327,1.586,1.586,0,0,1,.255.308,1.017,1.017,0,0,1,.15.635,2.174,2.174,0,0,1-.131.423c-.075.19-.163.391-.264.6a2.2,2.2,0,0,1-.437.651.4.4,0,0,1-.245.112H9.688a.521.521,0,0,1-.279-.107,5.533,5.533,0,0,0-.7-.38l-.013-.006a2.205,2.205,0,0,0-.915-.2,1.713,1.713,0,0,0-.44.054.6.6,0,0,0-.369.253.623.623,0,0,0-.076.372,1.427,1.427,0,0,0,.124.465,2.212,2.212,0,0,0,.273.462L9.379,7.268c.062.076.119.115.169.115s.119-.044.169-.134a1.65,1.65,0,0,0,.132-.318c.035-.114.067-.233.094-.355s.044-.193.057-.23c.038-.18.07-.368.095-.558s.046-.367.07-.568l.006-.048a.292.292,0,0,1,.319-.288h3.823a.253.253,0,0,1,.283.288V6.883a.253.253,0,0,1-.283.288H13.239a.308.308,0,0,0-.319.289,4.521,4.521,0,0,1-.16.662c-.07.215-.15.425-.236.625s-.2.374-.292.548-.2.345-.311.509a.319.319,0,0,0,.019.442L13.823,12.5a.3.3,0,0,1,.085.26.305.305,0,0,1-.179.2,5.965,5.965,0,0,1-1.111.384,5.307,5.307,0,0,1-1.168.116,3.3,3.3,0,0,1-1.148-.183,2.78,2.78,0,0,1-.616-.333,1.763,1.763,0,0,1-.159-.132.865.865,0,0,0-.345-.223.46.46,0,0,0-.117-.015.976.976,0,0,0-.447.156c-.048.026-.1.053-.147.076a7.672,7.672,0,0,1-.728.3,8.128,8.128,0,0,1-1.525.381A8.283,8.283,0,0,1,5,13.577ZM4.8,7.537a.716.716,0,0,0-.406.235l-.025.023a1.889,1.889,0,0,0-.341.415A1.717,1.717,0,0,0,4.2,10.324a1.639,1.639,0,0,0,1.13.4,3.8,3.8,0,0,0,.791-.077,1.875,1.875,0,0,0,.716-.327l.005,0a.325.325,0,0,0,.132-.163.256.256,0,0,0-.04-.2,1.785,1.785,0,0,0-.188-.229c-.036-.04-.074-.081-.108-.121L6.353,9.26l-.567-.69-.1-.124c-.07-.085-.14-.175-.207-.263a5.715,5.715,0,0,0-.43-.512A.363.363,0,0,0,4.8,7.537Z" transform="translate(23.76 5.091)" fill="#fff"/>
  <path id="R" d="M5.143,13.237c-.788,0-1.6-.006-2.4-.019S1.118,13.18.283,13.141c-.187,0-.283-.1-.283-.309V.29A.254.254,0,0,1,.283,0h2.6c.19,0,.283.095.283.29V3.473a.254.254,0,0,0,.283.29H4.973a.481.481,0,0,0,.434-.251L7.459.251A.478.478,0,0,1,7.892,0h3.014a.3.3,0,0,1,.273.106c.044.07.022.171-.066.3L8.457,4.361a.273.273,0,0,0-.053.207.3.3,0,0,0,.148.178,4.352,4.352,0,0,1,1.469,1.6,4.71,4.71,0,0,1,.508,2.219,4.3,4.3,0,0,1-1.422,3.473A6.008,6.008,0,0,1,5.143,13.237ZM3.447,6.5a.253.253,0,0,0-.283.289v3.339a.253.253,0,0,0,.283.289h.679c.207.013.393.02.555.02h.386c1.525,0,2.3-.643,2.3-1.911a1.924,1.924,0,0,0-.593-1.476A2.231,2.231,0,0,0,5.2,6.5Z" transform="translate(12.219 5.091)" fill="#fff"/>
  <path id="B" d="M5.919,13.237c-.866,0-1.769-.009-2.682-.028s-1.92-.055-2.95-.105C.1,13.1,0,13,0,12.8V.4C0,.2.1.1.287.1,1.278.058,2.235.033,3.132.019S4.869,0,5.67,0A5.791,5.791,0,0,1,9.109.9a2.981,2.981,0,0,1,1.236,2.556A3.263,3.263,0,0,1,9.866,5.2,2.971,2.971,0,0,1,8.544,6.352c-.129.058-.194.113-.192.165s.067.1.192.141a3.639,3.639,0,0,1,1.7,1.125,2.708,2.708,0,0,1,.622,1.755,3.205,3.205,0,0,1-1.312,2.737A6.052,6.052,0,0,1,5.919,13.237ZM3.506,7.763a.254.254,0,0,0-.287.286v2.212a.254.254,0,0,0,.287.286c.1,0,.215,0,.364.01s.318.017.48.028c.273.013.515.02.718.02h.45c1.449,0,2.183-.514,2.183-1.526a1.112,1.112,0,0,0-.508-.973,2.423,2.423,0,0,0-1.369-.343Zm0-5.131a.254.254,0,0,0-.287.286V5.207a.254.254,0,0,0,.287.286H5.5a2.021,2.021,0,0,0,1.321-.41,1.354,1.354,0,0,0,.5-1.1c0-.9-.69-1.355-2.05-1.355Z" transform="translate(0 5.091)" fill="#fff"/>
</svg>
