<?xml version="1.0" encoding="utf-8"?>
<!-- Generator: Adobe Illustrator 19.0.0, SVG Export Plug-In . SVG Version: 6.00 Build 0)  -->
<svg version="1.1" id="mail" xmlns="http://www.w3.org/2000/svg" xmlns:xlink="http://www.w3.org/1999/xlink" x="0px" y="0px"
	 viewBox="-875 1173.8 16 11.7" style="enable-background:new -875 1173.8 16 11.7;" xml:space="preserve" height="12" width="16">
<style type="text/css">
	.st0{fill:none;}
	.st1{fill:#050A23;}
</style>
<rect id="Rectangle" x="-883" y="1163.7" class="st0" width="32" height="32"/>
<path id="Shape" class="st1" d="M-873.6,1185.5c-0.4,0-0.7-0.1-1-0.4c-0.3-0.2-0.4-0.6-0.4-0.9v-6.6c0.3,0.3,0.6,0.5,0.9,0.7
	c2.2,1.4,3.6,2.3,4.4,2.9c0.3,0.2,0.6,0.4,0.8,0.5c0.3,0.2,0.6,0.3,0.8,0.4c0.3,0.1,0.6,0.2,1,0.2l0,0c0.3,0,0.7-0.1,1-0.2
	s0.6-0.2,0.8-0.4c0.2-0.1,0.5-0.3,0.8-0.5c1-0.7,2.5-1.6,4.4-2.9c0.3-0.2,0.6-0.4,0.9-0.7v6.6c0,0.4-0.2,0.7-0.4,0.9
	c-0.3,0.3-0.6,0.4-1,0.4H-873.6z M-867,1181.3L-867,1181.3c-0.2,0-0.3,0-0.5-0.1s-0.4-0.1-0.5-0.2c-0.2-0.1-0.3-0.2-0.5-0.3
	c-0.1-0.1-0.3-0.2-0.5-0.3s-0.3-0.2-0.4-0.3c-0.5-0.4-1.3-0.9-2.3-1.5c-1-0.7-1.6-1-1.8-1.2c-0.4-0.3-0.8-0.6-1-1
	c-0.3-0.3-0.5-0.7-0.5-1.1s0.1-0.8,0.4-1.1c0.3-0.3,0.7-0.5,1.1-0.4h13.1c0.4,0,0.7,0.1,1,0.4c0.3,0.2,0.4,0.6,0.4,0.9
	c0,0.5-0.2,0.9-0.4,1.2c-0.3,0.4-0.7,0.7-1.1,1l-4.2,2.7c-0.1,0-0.2,0.1-0.4,0.3c-0.2,0.1-0.4,0.2-0.5,0.3s-0.3,0.2-0.5,0.3
	s-0.3,0.2-0.5,0.2C-866.7,1181.3-866.8,1181.3-867,1181.3L-867,1181.3z"/>
</svg>
