<svg xmlns="http://www.w3.org/2000/svg" width="359.997" height="297.459" viewBox="0 0 359.997 297.459">
  <g id="Pattern" transform="translate(-0.88 -0.906) rotate(90)">
    <path id="Shape" d="M25.043,50.087A25.05,25.05,0,0,1,15.295,1.968a25.05,25.05,0,0,1,19.5,46.151A24.889,24.889,0,0,1,25.043,50.087Zm0-41.5A16.307,16.307,0,1,0,41.35,24.9,16.326,16.326,0,0,0,25.043,8.59Z" transform="translate(62.79 -360.877)" fill="#e03c31"/>
    <path id="Shape-2" data-name="Shape" d="M50.087,50.087h0a24.306,24.306,0,0,1-12.521-3.349,25.739,25.739,0,0,1-12.522,3.349A25.05,25.05,0,0,1,15.295,1.968,24.889,24.889,0,0,1,25.043,0,22.485,22.485,0,0,1,37.565,3.64,25.743,25.743,0,0,1,50.087.292V9.027h-.011A15.941,15.941,0,0,0,44.7,9.9a24.385,24.385,0,0,1,0,30.576,16.773,16.773,0,0,0,5.387.874v8.735ZM25.043,8.59A16.326,16.326,0,0,0,8.736,24.9,15.924,15.924,0,0,0,24.52,40.922c.174,0,.351,0,.524-.008a15.981,15.981,0,0,0,5.387-.874,24.385,24.385,0,0,1,0-30.576A16.757,16.757,0,0,0,25.043,8.59Zm12.522,5.97A16.076,16.076,0,0,0,33.779,24.9a15.417,15.417,0,0,0,3.786,10.337,16.008,16.008,0,0,0,0-20.675Z" transform="translate(0.91 -237.117)" fill="#e03c31"/>
    <path id="Path" d="M25.043,0A25.042,25.042,0,0,1,0-25.043H8.736A16.28,16.28,0,0,0,25.043-8.736,16.28,16.28,0,0,0,41.35-25.043h8.736A25.042,25.042,0,0,1,25.043,0Z" transform="translate(62.786 -124.786)" fill="#e03c31"/>
    <path id="Path-2" data-name="Path" d="M25.043-16.307A16.28,16.28,0,0,0,8.736,0H0A25.042,25.042,0,0,1,25.043-25.043,25.042,25.042,0,0,1,50.086,0H41.35A16.28,16.28,0,0,0,25.043-16.307Z" transform="translate(0.906 -124.64)" fill="#e03c31"/>
    <path id="Shape-3" data-name="Shape" d="M25.043,50.087A25.05,25.05,0,0,1,15.295,1.968a25.05,25.05,0,0,1,19.5,46.151A24.889,24.889,0,0,1,25.043,50.087Zm0-41.5A16.307,16.307,0,1,0,41.35,24.9,16.326,16.326,0,0,0,25.043,8.59Z" transform="translate(62.786 -112.997)" fill="#e03c31"/>
    <path id="Path-3" data-name="Path" d="M25.043-41.35A16.28,16.28,0,0,0,8.736-25.043,16.28,16.28,0,0,0,25.043-8.736V0A25.042,25.042,0,0,1,0-25.043,25.042,25.042,0,0,1,25.043-50.086,25.042,25.042,0,0,1,50.086-25.043H41.35A16.469,16.469,0,0,0,25.043-41.35Z" transform="translate(186.691 -62.91)" fill="#e03c31"/>
    <path id="Path-4" data-name="Path" d="M0,0V-8.736A16.28,16.28,0,0,0,16.307-25.043h8.736A25.042,25.042,0,0,1,0,0Z" transform="translate(87.829 -0.88)" fill="#e03c31"/>
    <path id="Path-5" data-name="Path" d="M25.043,0A25.042,25.042,0,0,1,0-25.043H8.736A16.28,16.28,0,0,0,25.043-8.736,16.28,16.28,0,0,0,41.35-25.043h8.736A25.23,25.23,0,0,1,25.043,0Z" transform="translate(248.278 -62.522)" fill="#e03c31"/>
  </g>
</svg>
