<svg xmlns="http://www.w3.org/2000/svg" width="23.962" height="27.429" viewBox="0 0 23.962 27.429">
  <g id="Pointer" transform="translate(-0.019)">
    <path id="Shape" d="M10.927,21.853A10.919,10.919,0,1,1,20.555,16.1a.571.571,0,1,1-1.007-.541,9.79,9.79,0,1,0-6.238,4.859.571.571,0,1,1,.279,1.108A10.916,10.916,0,0,1,10.927,21.853Z" transform="translate(0.019)" fill="#fff"/>
    <path id="Shape-2" data-name="Shape" d="M4.37,8.739A4.37,4.37,0,1,1,8.732,4.37a4.418,4.418,0,0,1-.519,2.079.571.571,0,0,1-.773.235l-2.251-1.2.626,2.433a.577.577,0,0,1-.062.435.568.568,0,0,1-.353.262A4.324,4.324,0,0,1,4.37,8.739Zm0-7.6A3.227,3.227,0,0,0,4.358,7.6c.064,0,.127,0,.193-.005L3.758,4.512a.572.572,0,0,1,.823-.647L7.429,5.383A3.266,3.266,0,0,0,7.59,4.37,3.227,3.227,0,0,0,4.37,1.143Z" transform="translate(6.576 6.557)" fill="#fff"/>
    <path id="Shape-3" data-name="Shape" d="M6.033,8.088a.57.57,0,0,1-.449-.218L.122.925a.571.571,0,1,1,.9-.706L6.482,7.164a.571.571,0,0,1-.449.925Z" transform="translate(17.377 19.34)" fill="#fff"/>
    <path id="Shape-4" data-name="Shape" d="M3.992,14.878a.573.573,0,0,1-.444-.419L.018.714A.571.571,0,0,1,.84.068L13.362,6.753a.571.571,0,0,1-.048,1.03L8,10.022,4.56,14.657a.579.579,0,0,1-.569.22Z" transform="translate(10.317 10.355)" fill="#fff"/>
  </g>
</svg>
