<?xml version="1.0" encoding="utf-8"?>
<!-- Generator: Adobe Illustrator 19.0.0, SVG Export Plug-In . SVG Version: 6.00 Build 0)  -->
<svg version="1.1" id="Layer_1" xmlns="http://www.w3.org/2000/svg" xmlns:xlink="http://www.w3.org/1999/xlink" x="0px" y="0px"
	 viewBox="-312 548.2 297.4 245.7" style="enable-background:new -312 548.2 297.4 245.7;" xml:space="preserve" width="297.46" height="246.67">
<style type="text/css">
	.st0{fill:#E03C31;}
</style>
<g id="Pattern" transform="translate(-0.88 -0.906) rotate(90)">
	<path id="Shape" class="st0" d="M620.9,55c-11.4,0-20.7-9.3-20.7-20.7c0-8.3,5-15.8,12.6-19c10.5-4.4,22.7,0.5,27.1,11
		s-0.5,22.7-11,27.1l0,0C626.4,54.5,623.7,55.1,620.9,55z M620.9,20.8c-7.4,0-13.5,6-13.5,13.5c0,7.4,6,13.5,13.5,13.5
		c7.4,0,13.5-6,13.5-13.5S628.4,20.8,620.9,20.8L620.9,20.8z"/>
	<path id="Shape-2" class="st0" d="M590.5,157.3L590.5,157.3c-3.6,0-7.2-0.9-10.3-2.8c-3.2,1.8-6.7,2.7-10.3,2.8
		c-11.5,0-20.8-9.3-20.8-20.7c0-8.3,5-15.8,12.6-19c2.5-1.1,5.3-1.6,8.1-1.6c3.7,0,7.3,1,10.3,3c3.2-1.8,6.7-2.7,10.3-2.8v7.2l0,0
		c-1.5,0-3,0.2-4.4,0.7c5.9,7.4,5.9,17.9,0,25.3c1.4,0.5,2.9,0.7,4.5,0.7V157.3L590.5,157.3z M569.8,123c-7.4,0-13.5,6-13.5,13.5
		c0,7.3,5.8,13.2,13,13.2c0.1,0,0.3,0,0.4,0c1.5,0,3-0.2,4.5-0.7c-5.9-7.4-5.9-17.9,0-25.3C572.8,123.3,571.3,123,569.8,123z
		 M580.2,128c-2,2.4-3.1,5.4-3.1,8.5s1.1,6.2,3.1,8.5C584.3,140.1,584.3,132.9,580.2,128L580.2,128z"/>
	<path id="Path" class="st0" d="M620.9,208.7c-11.4,0-20.7-9.3-20.7-20.7l0,0h7.2c0,7.4,6,13.5,13.4,13.5l0,0
		c7.4,0,13.5-6,13.5-13.4l0,0h7.2C641.6,199.5,632.4,208.7,620.9,208.7L620.9,208.7z"/>
	<path id="Path-2" class="st0" d="M569.8,195.4c-7.4,0-13.5,6-13.5,13.4l0,0h-7.2c0-11.4,9.3-20.7,20.7-20.7l0,0
		c11.4,0,20.7,9.3,20.7,20.7l0,0h-7.2C583.3,201.4,577.3,195.4,569.8,195.4L569.8,195.4z"/>
	<path id="Shape-3" class="st0" d="M620.9,259.9c-11.4,0-20.7-9.3-20.7-20.7c0-8.3,5-15.8,12.6-19c10.5-4.4,22.7,0.5,27.1,11
		c4.4,10.5-0.5,22.7-11,27.1l0,0C626.4,259.3,623.7,259.9,620.9,259.9z M620.9,225.6c-7.4,0-13.5,6-13.5,13.5
		c0,7.4,6,13.5,13.5,13.5c7.4,0,13.5-6,13.5-13.5S628.4,225.6,620.9,225.6L620.9,225.6z"/>
	<path id="Path-3" class="st0" d="M723.3,225.7c-7.4,0-13.5,6-13.5,13.4l0,0c0,7.4,6,13.5,13.4,13.5l0,0v7.2
		c-11.4,0-20.7-9.3-20.7-20.7l0,0c0-11.4,9.3-20.7,20.7-20.7l0,0c11.4,0,20.7,9.3,20.7,20.7l0,0h-7.2
		C736.7,231.8,730.7,225.8,723.3,225.7z"/>
	<path id="Path-4" class="st0" d="M620.9,311.1v-7.2c7.4,0,13.5-6,13.5-13.4l0,0h7.2C641.6,301.9,632.4,311.1,620.9,311.1
		L620.9,311.1z"/>
	<path id="Path-5" class="st0" d="M774.2,260.2c-11.4,0-20.7-9.3-20.7-20.7l0,0h7.2c0,7.4,6,13.5,13.4,13.5l0,0
		c7.4,0,13.5-6,13.5-13.4l0,0h7.2C794.8,250.9,785.6,260.1,774.2,260.2z"/>
</g>
</svg>
