<svg id="Logo" xmlns="http://www.w3.org/2000/svg" width="383" height="55" viewBox="0 0 383 55">
  <path id="O" d="M7,14a7,7,0,1,1,7-7A7.008,7.008,0,0,1,7,14ZM7,2.335A4.666,4.666,0,1,0,11.666,7,4.671,4.671,0,0,0,7,2.335Z" transform="translate(369)" fill="#fff"/>
  <path id="E" d="M0,37.162V.839A.745.745,0,0,1,.846,0H28.154A.745.745,0,0,1,29,.839V7.377a.744.744,0,0,1-.846.838H10.325a.745.745,0,0,0-.846.839v5.085a.744.744,0,0,0,.846.838h15.29a.745.745,0,0,1,.846.839v6.37a.745.745,0,0,1-.846.839H10.325a.744.744,0,0,0-.846.838v5.086a.744.744,0,0,0,.846.838H28.154a.744.744,0,0,1,.846.838v6.539a.744.744,0,0,1-.846.838H.846A.744.744,0,0,1,0,37.162" transform="translate(338 16)" fill="#fff"/>
  <path id="S" d="M30.4,9.816a.9.9,0,0,1-.961.794,1.232,1.232,0,0,1-.4-.057A45.82,45.82,0,0,0,16.657,8.341q-5.373,0-5.372,3.4,0,1.929,2.771,2.837,1.131.4,5.768,1.361,6.615,1.477,9.9,3.972Q33,22.355,33,27.574a12.053,12.053,0,0,1-1.131,5.334,10.631,10.631,0,0,1-3.195,3.887,14.8,14.8,0,0,1-5.033,2.383,25.13,25.13,0,0,1-6.7.823A47.7,47.7,0,0,1,.6,36.936.888.888,0,0,1,.032,35.8l1.64-6.525a.867.867,0,0,1,.905-.794,1.888,1.888,0,0,1,.452.113,59.212,59.212,0,0,0,6.786,2.043,30.08,30.08,0,0,0,7.012.851q5.937,0,5.937-3.291a2.648,2.648,0,0,0-1.3-2.326,3.089,3.089,0,0,0-.962-.567,8.489,8.489,0,0,0-1.131-.4,9.552,9.552,0,0,0-1.3-.4q-.906-.226-1.414-.34-.226-.056-.65-.142c-.283-.057-.575-.114-.877-.17s-.594-.114-.876-.17l-.707-.142A45.169,45.169,0,0,1,8.768,22.3a14.189,14.189,0,0,1-4.014-1.986,9.286,9.286,0,0,1-2.771-3.206A10.318,10.318,0,0,1,.937,12.2,11.088,11.088,0,0,1,2.294,6.525,11.187,11.187,0,0,1,5.856,2.752,15.4,15.4,0,0,1,10.89.652,25.339,25.339,0,0,1,16.6,0,45.912,45.912,0,0,1,31.36,2.326a.889.889,0,0,1,.566,1.135Z" transform="translate(300 15)" fill="#fff"/>
  <path id="L" d="M1.394,38A1.234,1.234,0,0,1,0,36.6V1.4A1.234,1.234,0,0,1,1.394,0H7.976A1.234,1.234,0,0,1,9.37,1.4V28.277a1.234,1.234,0,0,0,1.395,1.4h15.84A1.234,1.234,0,0,1,28,31.07V36.6A1.234,1.234,0,0,1,26.605,38Z" transform="translate(270 16)" fill="#fff"/>
  <path id="U" d="M.853,0H8.81a.746.746,0,0,1,.852.836V20.787a9.557,9.557,0,0,0,2.217,6.743,7.947,7.947,0,0,0,6.138,2.4,8.134,8.134,0,0,0,6.2-2.4,9.413,9.413,0,0,0,2.274-6.743V.836A.746.746,0,0,1,27.339,0H35.3a.747.747,0,0,1,.853.836V20.787a21.584,21.584,0,0,1-1.222,7.5,15.057,15.057,0,0,1-3.581,5.629,16.087,16.087,0,0,1-5.712,3.567,21.634,21.634,0,0,1-7.616,1.254A21.631,21.631,0,0,1,10.4,37.478a14.974,14.974,0,0,1-9.179-9.2A21.552,21.552,0,0,1,0,20.787V.836A.747.747,0,0,1,.853,0" transform="translate(229.44 15.268)" fill="#fff"/>
  <path id="P" d="M8.5,39H.833A.746.746,0,0,1,0,38.149V1.3C0,.7.28.4.833.4,3.609.247,6.161.142,8.417.085S12.737,0,14.555,0a24.021,24.021,0,0,1,6.334.822A14.859,14.859,0,0,1,26.139,3.4a12.574,12.574,0,0,1,3.556,4.422A14.516,14.516,0,0,1,31,14.228a14.281,14.281,0,0,1-1.333,6.377,13.046,13.046,0,0,1-3.584,4.478,14.959,14.959,0,0,1-5.222,2.636,22.973,22.973,0,0,1-6.306.85H10.166a.746.746,0,0,0-.833.851v8.729A.747.747,0,0,1,8.5,39ZM15.111,8.333c-.6,0-1.313.009-2.111.028-.868.021-1.821.05-2.833.085a.746.746,0,0,0-.833.85v10.09a.746.746,0,0,0,.833.851h4.945a6.943,6.943,0,0,0,4.778-1.587,5.576,5.576,0,0,0,1.778-4.365,5.542,5.542,0,0,0-1.778-4.422A7.111,7.111,0,0,0,15.111,8.333Z" transform="translate(196 15)" fill="#fff"/>
  <path id="D" d="M15.169,39c-2.162,0-4.459-.028-6.826-.084s-4.9-.161-7.5-.309c-.559,0-.842-.3-.842-.9V1.289c0-.595.283-.9.842-.9C3.481.243,5.919.139,8.09.085,10.277.028,12.338,0,14.214,0A25.739,25.739,0,0,1,22.5,1.289a19.093,19.093,0,0,1,6.573,3.755,17.225,17.225,0,0,1,4.354,6.08A20.641,20.641,0,0,1,35,19.388a21.752,21.752,0,0,1-1.433,8.041,17.875,17.875,0,0,1-4.045,6.191A18.037,18.037,0,0,1,23.259,37.6,22.507,22.507,0,0,1,15.169,39ZM12.191,8.461c-.7,0-1.338.019-1.911.057-.559,0-.842.3-.842.9V29.587c0,.595.283.9.842.9.624.037,1.371.056,2.219.056h2.894a9.181,9.181,0,0,0,4.185-.925,9.552,9.552,0,0,0,3.091-2.465,10.74,10.74,0,0,0,1.909-3.558,13.78,13.78,0,0,0,.646-4.2,12.372,12.372,0,0,0-.758-4.37,10.284,10.284,0,0,0-2.136-3.474,9.6,9.6,0,0,0-3.342-2.27,11.442,11.442,0,0,0-4.382-.813Z" transform="translate(157 15)" fill="#e03c31"/>
  <path id="N" d="M36,.839V37.162a.744.744,0,0,1-.846.838H27.367a.745.745,0,0,1-.847-.838V17.6c0-.6-.132-.894-.394-.894q-.283,0-.677.5L9.254,37.33A1.771,1.771,0,0,1,7.843,38h-7A.744.744,0,0,1,0,37.162V.839A.745.745,0,0,1,.846,0H8.633a.745.745,0,0,1,.846.839V20.565q0,.894.4.894.225,0,.677-.5L26.69.671A1.768,1.768,0,0,1,28.1,0h7.053A.744.744,0,0,1,36,.839" transform="translate(116 16)" fill="#e03c31"/>
  <path id="A" d="M14.715,40A22.735,22.735,0,0,1,9.1,39.31a13.667,13.667,0,0,1-4.688-2.153,10.638,10.638,0,0,1-3.218-3.794A12.206,12.206,0,0,1,0,27.755a17.419,17.419,0,0,1,.194-2.634,9.167,9.167,0,0,1,.638-2.294,14.847,14.847,0,0,1,3.273-4.559,16.777,16.777,0,0,1,4.661-2.974.679.679,0,0,0,.332-1.02,12.526,12.526,0,0,1-1.054-2.407,9.246,9.246,0,0,1-.333-2.633,7.392,7.392,0,0,1,1.22-4.3A9.739,9.739,0,0,1,12.04,2.067,13.914,13.914,0,0,1,16.2.482,21.059,21.059,0,0,1,20.529,0a24.672,24.672,0,0,1,4.439.4,17.3,17.3,0,0,1,4.217,1.359,7.191,7.191,0,0,1,1.36.963,4.674,4.674,0,0,1,.749.906,3,3,0,0,1,.444,1.869,6.361,6.361,0,0,1-.388,1.246c-.221.563-.482,1.154-.777,1.757a6.5,6.5,0,0,1-1.287,1.916,1.15,1.15,0,0,1-.721.328h-.026a1.535,1.535,0,0,1-.816-.315,16.633,16.633,0,0,0-2.106-1.132l-.011-.005a6.5,6.5,0,0,0-2.7-.594,5.063,5.063,0,0,0-1.3.158,1.772,1.772,0,0,0-1.088.745,1.843,1.843,0,0,0-.223,1.094,4.146,4.146,0,0,0,.364,1.373,6.686,6.686,0,0,0,.8,1.359l6.159,7.987c.184.225.352.339.5.339.184,0,.352-.133.5-.4a4.834,4.834,0,0,0,.388-.935c.108-.35.2-.7.277-1.048s.129-.565.167-.68c.108-.517.2-1.07.277-1.642.067-.517.138-1.092.221-1.813a.865.865,0,0,1,.943-.85H42.168a.746.746,0,0,1,.833.85v5.041a.746.746,0,0,1-.833.85H39.005a.908.908,0,0,0-.943.85,13.207,13.207,0,0,1-.472,1.954c-.2.621-.437,1.24-.694,1.841-.307.587-.588,1.115-.86,1.615s-.586,1.017-.915,1.5a.938.938,0,0,0,.056,1.3l5.548,6.627a.883.883,0,0,1,.25.765.914.914,0,0,1-.527.595,17.808,17.808,0,0,1-3.273,1.133,15.705,15.705,0,0,1-3.441.34,9.7,9.7,0,0,1-3.384-.539,8.053,8.053,0,0,1-1.816-.98,5.066,5.066,0,0,1-.474-.393,2.53,2.53,0,0,0-1.011-.652,1.361,1.361,0,0,0-.344-.044,2.871,2.871,0,0,0-1.316.461c-.142.077-.289.157-.434.224-.7.327-1.417.624-2.147.883a24.117,24.117,0,0,1-4.491,1.121A24.444,24.444,0,0,1,14.715,40Zm-.566-17.8a2.115,2.115,0,0,0-1.2.7l-.069.063a5.544,5.544,0,0,0-1.006,1.223c-1.122,1.839-1.242,4.672.5,6.229a4.837,4.837,0,0,0,3.33,1.189,11.154,11.154,0,0,0,2.33-.226,5.543,5.543,0,0,0,2.11-.962l.015-.012a.966.966,0,0,0,.389-.481.746.746,0,0,0-.117-.586,5.166,5.166,0,0,0-.55-.672c-.108-.118-.22-.24-.319-.36l-.842-1.026-.985-1.2-.985-1.2c-.2-.248-.407-.511-.6-.765A16.931,16.931,0,0,0,14.87,22.6,1.085,1.085,0,0,0,14.149,22.2Z" transform="translate(70 15)" fill="#e03c31"/>
  <path id="R" d="M15.15,39c-2.375,0-4.755-.019-7.075-.057-2.385-.038-4.821-.114-7.242-.228-.552,0-.832-.306-.832-.909V.852A.747.747,0,0,1,.833,0H8.491a.747.747,0,0,1,.833.852v9.382a.747.747,0,0,0,.832.852H14.65a1.414,1.414,0,0,0,1.276-.739L21.976.739A1.412,1.412,0,0,1,23.252,0h8.878a.886.886,0,0,1,.8.312c.128.208.063.5-.194.882L24.917,12.848a.806.806,0,0,0-.156.612.875.875,0,0,0,.433.525A12.794,12.794,0,0,1,29.522,18.7a13.874,13.874,0,0,1,1.5,6.538,15.583,15.583,0,0,1-1.048,5.912,11.066,11.066,0,0,1-3.143,4.321,14,14,0,0,1-5.015,2.643A23.2,23.2,0,0,1,15.15,39ZM10.156,19.159a.747.747,0,0,0-.832.852v9.835a.747.747,0,0,0,.832.853h2c.625.038,1.176.057,1.637.057h1.138a7.836,7.836,0,0,0,5.077-1.407A5.2,5.2,0,0,0,21.7,25.128a5.667,5.667,0,0,0-1.749-4.349,6.571,6.571,0,0,0-4.633-1.62Z" transform="translate(36 15)" fill="#e03c31"/>
  <path id="B" d="M17.438,39c-2.523,0-5.182-.028-7.9-.085S3.9,38.756.846,38.606c-.561,0-.846-.3-.846-.9V1.18c0-.6.285-.9.846-.9C3.765.17,6.585.095,9.228.057,11.83.019,14.346,0,16.706,0c4.306,0,7.714.889,10.129,2.641a8.548,8.548,0,0,1,2.73,3.2,9.867,9.867,0,0,1,.91,4.326,9.611,9.611,0,0,1-1.41,5.143,8.74,8.74,0,0,1-3.894,3.4c-.381.17-.571.333-.565.485s.2.285.565.413a10.717,10.717,0,0,1,4.994,3.316A7.985,7.985,0,0,1,32,28.1a10.633,10.633,0,0,1-.967,4.63,9.173,9.173,0,0,1-2.9,3.435C25.568,38.045,21.97,39,17.438,39ZM10.328,22.872a.748.748,0,0,0-.846.842v6.519a.749.749,0,0,0,.846.843c.305,0,.666.009,1.073.028.426.02.9.049,1.41.085.811.037,1.523.056,2.117.056h1.327a8.492,8.492,0,0,0,4.826-1.124,3.857,3.857,0,0,0,1.609-3.372,3.273,3.273,0,0,0-1.5-2.866,7.139,7.139,0,0,0-4.036-1.012Zm0-15.116a.748.748,0,0,0-.846.842v6.744a.749.749,0,0,0,.846.843H16.2a5.96,5.96,0,0,0,3.894-1.209,3.986,3.986,0,0,0,1.467-3.231,3.361,3.361,0,0,0-1.51-2.992,8.332,8.332,0,0,0-4.528-1Z" transform="translate(0 15)" fill="#e03c31"/>
</svg>
